<svg width="32" height="32" viewBox="0 0 32 32" fill="none" xmlns="http://www.w3.org/2000/svg">
  <rect width="32" height="32" rx="8" fill="#25D366"/>
  <path d="M16 6C10.486 6 6 10.486 6 16C6 17.815 6.546 19.505 7.489 20.926L6 26L11.176 24.534C12.547 25.438 14.203 26 16 26C21.514 26 26 21.514 26 16C26 10.486 21.514 6 16 6Z" fill="white"/>
  <path d="M16 7C11.037 7 7 11.037 7 16C7 17.664 7.495 19.208 8.355 20.507L7 25L11.567 23.669C12.836 24.491 14.365 25 16 25C20.963 25 25 20.963 25 16C25 11.037 20.963 7 16 7Z" fill="#25D366"/>
  <path d="M20.5 18.5C20.219 18.359 18.844 17.688 18.594 17.594C18.344 17.5 18.156 17.453 17.969 17.734C17.781 18.016 17.266 18.641 17.109 18.828C16.953 19.016 16.797 19.047 16.516 18.906C16.234 18.766 15.359 18.484 14.313 17.547C13.5 16.828 12.953 15.938 12.797 15.656C12.641 15.375 12.781 15.219 12.922 15.078C13.047 14.953 13.203 14.766 13.344 14.609C13.484 14.453 13.531 14.344 13.625 14.156C13.719 13.969 13.672 13.813 13.609 13.672C13.547 13.531 12.953 12.156 12.734 11.594C12.516 11.047 12.297 11.109 12.125 11.109C11.969 11.109 11.781 11.094 11.594 11.094C11.406 11.094 11.109 11.156 10.859 11.438C10.609 11.719 9.891 12.391 9.891 13.766C9.891 15.141 10.891 16.469 11.031 16.656C11.172 16.844 12.953 19.578 15.703 20.781C16.359 21.063 16.875 21.234 17.281 21.359C17.938 21.578 18.531 21.547 19 21.484C19.516 21.406 20.594 20.813 20.813 20.156C21.031 19.5 21.031 18.938 20.969 18.828C20.906 18.719 20.781 18.656 20.5 18.5Z" fill="white"/>
</svg> 